# xmcd
#
# Track frame offsets:
#	150
#	13411
#	26038
#	39237
#	53492
#	64309
#	77576
#	90907
#	102402
#	115588
#	127750
#	140363
#	152894
#	164383
#	176861
#	190372
#	203662
#	216891
#	231051
#	242025
#	254214
#	265846
#	276770
#	291099
#
# Disc length: 3973 seconds
#
# Revision: 1
# Processed by: cddbd v1.5.2PL0 Copyright (c) Steve Scherf et al.
# Submitted via: audiograbber 1.83.01
#
DISCID=550f8318
DTITLE=The Greatest Country Music Recordings Of All Time - Record 79 and 80
DYEAR=1900
DGENRE=
TTITLE0=Joseph Falcon - (Allons A) Lafayette
TTITLE1=McGee and Ardoin - One Step Des Chameaux
TTITLE2=Amadie, Orphy and Cleoma Breaux - Vas Y Carrement (Step It Fast)
TTITLE3=Angelais Lejeune - Bayou Pom Pom One Step
TTITLE4=Walker Brothers - La Vie Malheuruse
TTITLE5=Sidney Landry - La Blouse Francaise
TTITLE6=Leo Soileau - Hackberry Hop
TTITLE7=Hackberry Ramblers - Fai Pa Ca
TTITLE8=Riverside Ramblers - Wondering
TTITLE9=Nathan Abshire - Pine Grove Blues
TTITLE10=Irv LeJune - Teche Special
TTITLE11=Harry Choates - Jole Blon
TTITLE12=Harry Choates - Basile Waltz
TTITLE13=Floyd LeBlanc - Louisiana Stomp
TTITLE14=Happy, Doc and The Boys - Colinda
TTITLE15=Happy and The Doctor - La Valse De Hadacol
TTITLE16=Chuck Giullory - Big Texas
TTITLE17=Chuck Cuillory - Chere Petit
TTITLE18=Jimmy C. Newman - Big Mamou
TTITLE19=Mimmy C. Newman - Alligator Man
TTITLE20=Rusty and Doug Kershaw - Louisiana Man
TTITLE21=Doug Kershaw - Diggi Liggi Lo
TTITLE22=Balfa Brothers - LaCassine Special
TTITLE23=The Cajun Trio - "Mamou" Hillbillys
EXTD=
EXTT0=
EXTT1=
EXTT2=
EXTT3=
EXTT4=
EXTT5=
EXTT6=
EXTT7=
EXTT8=
EXTT9=
EXTT10=
EXTT11=
EXTT12=
EXTT13=
EXTT14=
EXTT15=
EXTT16=
EXTT17=
EXTT18=
EXTT19=
EXTT20=
EXTT21=
EXTT22=
EXTT23=
PLAYORDER=
